{
  "source": "C:\\Users\\Peter\\Desktop\\stuff\\MIUN\\quantitative_research\\video_compression\\videos\\HEVC_CLASS_B\\Cactus_1920x1080_50.y4m",
  "output": "C:\\Users\\Peter\\Desktop\\stuff\\MIUN\\quantitative_research\\video_compression\\compressed_videos\\HEVC_CLASS_B\\vp9\\12\\Cactus_1920x1080_50_vp9.webm",
  "codec": "vp9",
  "ok": "Input #0, yuv4mpegpipe, from 'C:\\Users\\Peter\\Desktop\\stuff\\MIUN\\quantitative_research\\video_compression\\videos\\HEVC_CLASS_B\\Cactus_1920x1080_50.y4m':\n  Duration: 00:00:10.00, start: 0.000000, bitrate: 1244162 kb/s\n  Stream #0:0: Video: rawvideo (I420 / 0x30323449), yuv420p(progressive), 1920x1080, 50 fps, 50 tbr, 50 tbn\n[out#0/webm @ 00000133cce46cc0] Codec AVOption b:a (set bitrate (in bits/s)) has not been used for any stream. The most likely reason is either wrong type (e.g. a video option with no video streams) or that it is a private option of some decoder which was not actually used for any stream.\nStream mapping:\n  Stream #0:0 -> #0:0 (rawvideo (native) -> vp9 (libvpx-vp9))\nPress [q] to stop, [?] for help\n[libvpx-vp9 @ 00000133cce4c2c0] v1.15.2-100-g40561f514\nOutput #0, webm, to 'C:\\Users\\Peter\\Desktop\\stuff\\MIUN\\quantitative_research\\video_compression\\compressed_videos\\HEVC_CLASS_B\\vp9\\12\\Cactus_1920x1080_50_vp9.webm':\n  Metadata:\n    encoder         : Lavf62.3.100\n  Stream #0:0: Video: vp9, yuv420p(tv, progressive), 1920x1080, q=2-31, 12000 kb/s, 50 fps, 1k tbn\n    Metadata:\n      encoder         : Lavc62.11.100 libvpx-vp9\n    Side data:\n      cpb: bitrate max/min/avg: 0/0/0 buffer size: 12000000 vbv_delay: N/A\nframe=    0 fps=0.0 q=0.0 size=       0KiB time=N/A bitrate=N/A speed=N/A elapsed=0:00:01.26    \nframe=    0 fps=0.0 q=0.0 size=       0KiB time=N/A bitrate=N/A speed=N/A elapsed=0:00:01.78    \nframe=    0 fps=0.0 q=0.0 size=       0KiB time=N/A bitrate=N/A speed=N/A elapsed=0:00:02.34    \nframe=    0 fps=0.0 q=0.0 size=       0KiB time=N/A bitrate=N/A speed=N/A elapsed=0:00:02.88    \nframe=    1 fps=0.3 q=12.0 size=       0KiB time=00:00:00.02 bitrate= 192.8kbits/s speed=0.00582x elapsed=0:00:03.43    \nframe=    2 fps=0.5 q=23.0 size=       0KiB time=00:00:00.04 bitrate=  96.4kbits/s speed=0.00999x elapsed=0:00:04.00    \nframe=    4 fps=0.8 q=39.0 size=       0KiB time=00:00:00.06 bitrate=  64.3kbits/s speed=0.0127x elapsed=0:00:04.74    \nframe=    6 fps=1.0 q=35.0 size=       0KiB time=00:00:00.12 bitrate=  32.1kbits/s speed=0.0209x elapsed=0:00:05.73    \nframe=    7 fps=1.1 q=35.0 size=       0KiB time=00:00:00.14 bitrate=  27.5kbits/s speed=0.0224x elapsed=0:00:06.25    \nframe=    9 fps=1.3 q=32.0 size=       0KiB time=00:00:00.18 bitrate=  21.4kbits/s speed=0.0266x elapsed=0:00:06.77    \nframe=   10 fps=1.3 q=32.0 size=       0KiB time=00:00:00.20 bitrate=  19.3kbits/s speed=0.0267x elapsed=0:00:07.47    \nframe=   11 fps=1.4 q=32.0 size=       0KiB time=00:00:00.22 bitrate=  17.5kbits/s speed=0.0275x elapsed=0:00:07.99    \nframe=   12 fps=1.4 q=20.0 size=       0KiB time=00:00:00.24 bitrate=  16.1kbits/s speed=0.028x elapsed=0:00:08.57    \nframe=   14 fps=1.5 q=31.0 size=       0KiB time=00:00:00.28 bitrate=  13.8kbits/s speed=0.0306x elapsed=0:00:09.14    \nframe=   15 fps=1.5 q=31.0 size=       0KiB time=00:00:00.30 bitrate=  12.9kbits/s speed=0.0309x elapsed=0:00:09.70    \nframe=   16 fps=1.6 q=32.0 size=       0KiB time=00:00:00.32 bitrate=  12.1kbits/s speed=0.0312x elapsed=0:00:10.26    \nframe=   17 fps=1.6 q=32.0 size=       0KiB time=00:00:00.34 bitrate=  11.3kbits/s speed=0.0314x elapsed=0:00:10.83    \nframe=   18 fps=1.6 q=32.0 size=       0KiB time=00:00:00.36 bitrate=  10.7kbits/s speed=0.0315x elapsed=0:00:11.42    \nframe=   19 fps=1.6 q=33.0 size=       0KiB time=00:00:00.38 bitrate=  10.1kbits/s speed=0.0317x elapsed=0:00:11.99    \nframe=   20 fps=1.6 q=33.0 size=       0KiB time=00:00:00.40 bitrate=   9.6kbits/s speed=0.0317x elapsed=0:00:12.60    \nframe=   21 fps=1.6 q=33.0 size=       0KiB time=00:00:00.42 bitrate=   9.2kbits/s speed=0.032x elapsed=0:00:13.13    \nframe=   22 fps=1.6 q=34.0 size=       0KiB time=00:00:00.44 bitrate=   8.8kbits/s speed=0.0322x elapsed=0:00:13.64    \nframe=   22 fps=1.5 q=34.0 size=       0KiB time=00:00:00.44 bitrate=   8.8kbits/s speed=0.031x elapsed=0:00:14.20    \nframe=   23 fps=1.6 q=18.0 size=       0KiB time=00:00:00.46 bitrate=   8.4kbits/s speed=0.031x elapsed=0:00:14.83    \nframe=   24 fps=1.6 q=34.0 size=       0KiB time=00:00:00.48 bitrate=   8.0kbits/s speed=0.031x elapsed=0:00:15.46    \nframe=   26 fps=1.6 q=33.0 size=       0KiB time=00:00:00.50 bitrate=   7.7kbits/s speed=0.0313x elapsed=0:00:15.99    \nframe=   27 fps=1.6 q=33.0 size=       0KiB time=00:00:00.54 bitrate=   7.1kbits/s speed=0.0322x elapsed=0:00:16.75    \nframe=   28 fps=1.6 q=33.0 size=       0KiB time=00:00:00.56 bitrate=   6.9kbits/s speed=0.0321x elapsed=0:00:17.45    \nframe=   29 fps=1.6 q=33.0 size=       0KiB time=00:00:00.58 bitrate=   6.6kbits/s speed=0.0322x elapsed=0:00:17.99    \nframe=   30 fps=1.6 q=34.0 size=       0KiB time=00:00:00.60 bitrate=   6.4kbits/s speed=0.0324x elapsed=0:00:18.50    \nframe=   31 fps=1.6 q=34.0 size=       0KiB time=00:00:00.62 bitrate=   6.2kbits/s speed=0.0325x elapsed=0:00:19.08    \nframe=   32 fps=1.6 q=34.0 size=       0KiB time=00:00:00.64 bitrate=   6.0kbits/s speed=0.0326x elapsed=0:00:19.61    \nframe=   32 fps=1.6 q=34.0 size=       0KiB time=00:00:00.64 bitrate=   6.0kbits/s speed=0.0318x elapsed=0:00:20.12    \nframe=   33 fps=1.6 q=34.0 size=       0KiB time=00:00:00.66 bitrate=   5.8kbits/s speed=0.032x elapsed=0:00:20.64    \nframe=   33 fps=1.5 q=34.0 size=       0KiB time=00:00:00.66 bitrate=   5.8kbits/s speed=0.031x elapsed=0:00:21.32    \nframe=   33 fps=1.5 q=34.0 size=       0KiB time=00:00:00.66 bitrate=   5.8kbits/s speed=0.0301x elapsed=0:00:21.90    \nframe=   35 fps=1.6 q=35.0 size=       0KiB time=00:00:00.70 bitrate=   5.5kbits/s speed=0.0312x elapsed=0:00:22.44    \nframe=   36 fps=1.6 q=33.0 size=       0KiB time=00:00:00.72 bitrate=   5.4kbits/s speed=0.0314x elapsed=0:00:22.96    \nframe=   37 fps=1.6 q=33.0 size=       0KiB time=00:00:00.74 bitrate=   5.2kbits/s speed=0.0315x elapsed=0:00:23.48    \nframe=   38 fps=1.6 q=34.0 size=       0KiB time=00:00:00.76 bitrate=   5.1kbits/s speed=0.0316x elapsed=0:00:24.04    \nframe=   39 fps=1.6 q=34.0 size=       0KiB time=00:00:00.78 bitrate=   4.9kbits/s speed=0.0317x elapsed=0:00:24.57    \nframe=   40 fps=1.6 q=34.0 size=       0KiB time=00:00:00.80 bitrate=   4.8kbits/s speed=0.0319x elapsed=0:00:25.09    \nframe=   41 fps=1.6 q=34.0 size=       0KiB time=00:00:00.82 bitrate=   4.7kbits/s speed=0.032x elapsed=0:00:25.63    \nframe=   42 fps=1.6 q=34.0 size=       0KiB time=00:00:00.84 bitrate=   4.6kbits/s speed=0.0321x elapsed=0:00:26.19    \nframe=   44 fps=1.6 q=34.0 size=       0KiB time=00:00:00.88 bitrate=   4.4kbits/s speed=0.0329x elapsed=0:00:26.71    \nframe=   44 fps=1.6 q=34.0 size=       0KiB time=00:00:00.88 bitrate=   4.4kbits/s speed=0.0323x elapsed=0:00:27.27    \nframe=   44 fps=1.6 q=34.0 size=       0KiB time=00:00:00.88 bitrate=   4.4kbits/s speed=0.0316x elapsed=0:00:27.83    \nframe=   45 fps=1.6 q=16.0 size=       0KiB time=00:00:00.90 bitrate=   4.3kbits/s speed=0.0317x elapsed=0:00:28.36    \nframe=   46 fps=1.6 q=34.0 size=       0KiB time=00:00:00.92 bitrate=   4.2kbits/s speed=0.0318x elapsed=0:00:28.94    \nframe=   47 fps=1.6 q=33.0 size=       0KiB time=00:00:00.94 bitrate=   4.1kbits/s speed=0.0319x elapsed=0:00:29.47    \nframe=   49 fps=1.6 q=34.0 size=       0KiB time=00:00:00.98 bitrate=   3.9kbits/s speed=0.0326x elapsed=0:00:30.03    \nframe=   50 fps=1.6 q=34.0 size=       0KiB time=00:00:01.00 bitrate=   3.9kbits/s speed=0.0327x elapsed=0:00:30.60    \nframe=   51 fps=1.6 q=34.0 size=       0KiB time=00:00:01.02 bitrate=   3.8kbits/s speed=0.0327x elapsed=0:00:31.20    \nframe=   53 fps=1.7 q=35.0 size=       0KiB time=00:00:01.06 bitrate=   3.6kbits/s speed=0.0334x elapsed=0:00:31.74    \nframe=   54 fps=1.7 q=35.0 size=       0KiB time=00:00:01.08 bitrate=   3.6kbits/s speed=0.0335x elapsed=0:00:32.26    \nframe=   55 fps=1.7 q=35.0 size=       0KiB time=00:00:01.10 bitrate=   3.5kbits/s speed=0.0336x elapsed=0:00:32.78    \nframe=   55 fps=1.7 q=35.0 size=       0KiB time=00:00:01.10 bitrate=   3.5kbits/s speed=0.033x elapsed=0:00:33.30    \nframe=   55 fps=1.6 q=35.0 size=       0KiB time=00:00:01.10 bitrate=   3.5kbits/s speed=0.0325x elapsed=0:00:33.81    \nframe=   56 fps=1.6 q=16.0 size=       0KiB time=00:00:01.12 bitrate=   3.4kbits/s speed=0.0326x elapsed=0:00:34.34    \nframe=   57 fps=1.6 q=35.0 size=       0KiB time=00:00:01.14 bitrate=   3.4kbits/s speed=0.0327x elapsed=0:00:34.84    \nframe=   58 fps=1.6 q=33.0 size=       0KiB time=00:00:01.16 bitrate=   3.3kbits/s speed=0.0328x elapsed=0:00:35.36    \nframe=   59 fps=1.6 q=33.0 size=       0KiB time=00:00:01.18 bitrate=   3.3kbits/s speed=0.0329x elapsed=0:00:35.88    \nframe=   60 fps=1.6 q=33.0 size=       0KiB time=00:00:01.20 bitrate=   3.2kbits/s speed=0.033x elapsed=0:00:36.40    \nframe=   61 fps=1.7 q=33.0 size=       0KiB time=00:00:01.22 bitrate=   3.2kbits/s speed=0.0331x elapsed=0:00:36.91    \nframe=   62 fps=1.7 q=34.0 size=       0KiB time=00:00:01.24 bitrate=   3.1kbits/s speed=0.0331x elapsed=0:00:37.42    \nframe=   63 fps=1.7 q=34.0 size=       0KiB time=00:00:01.26 bitrate=   3.1kbits/s speed=0.0332x elapsed=0:00:37.95    \nframe=   64 fps=1.7 q=33.0 size=       0KiB time=00:00:01.28 bitrate=   3.0kbits/s speed=0.0333x elapsed=0:00:38.45    \nframe=   65 fps=1.7 q=33.0 size=       0KiB time=00:00:01.30 bitrate=   3.0kbits/s speed=0.0334x elapsed=0:00:38.97    \nframe=   66 fps=1.7 q=33.0 size=       0KiB time=00:00:01.32 bitrate=   2.9kbits/s speed=0.0334x elapsed=0:00:39.48    \nframe=   66 fps=1.6 q=33.0 size=       0KiB time=00:00:01.32 bitrate=   2.9kbits/s speed=0.033x elapsed=0:00:40.00    \nframe=   66 fps=1.6 q=33.0 size=       0KiB time=00:00:01.32 bitrate=   2.9kbits/s speed=0.0326x elapsed=0:00:40.52    \nframe=   67 fps=1.6 q=16.0 size=       0KiB time=00:00:01.34 bitrate=   2.9kbits/s speed=0.0326x elapsed=0:00:41.04    \nframe=   68 fps=1.6 q=34.0 size=       0KiB time=00:00:01.36 bitrate=   2.8kbits/s speed=0.0327x elapsed=0:00:41.55    \nframe=   69 fps=1.6 q=33.0 size=       0KiB time=00:00:01.38 bitrate=   2.8kbits/s speed=0.0328x elapsed=0:00:42.07    \nframe=   70 fps=1.6 q=33.0 size=       0KiB time=00:00:01.40 bitrate=   2.8kbits/s speed=0.0329x elapsed=0:00:42.58    \nframe=   71 fps=1.6 q=34.0 size=       0KiB time=00:00:01.42 bitrate=   2.7kbits/s speed=0.0329x elapsed=0:00:43.11    \nframe=   72 fps=1.7 q=34.0 size=       0KiB time=00:00:01.44 bitrate=   2.7kbits/s speed=0.033x elapsed=0:00:43.61    \nframe=   73 fps=1.7 q=35.0 size=       0KiB time=00:00:01.46 bitrate=   2.6kbits/s speed=0.0331x elapsed=0:00:44.13    \nframe=   74 fps=1.7 q=35.0 size=       0KiB time=00:00:01.48 bitrate=   2.6kbits/s speed=0.0331x elapsed=0:00:44.65    \nframe=   76 fps=1.7 q=35.0 size=       0KiB time=00:00:01.52 bitrate=   2.5kbits/s speed=0.0337x elapsed=0:00:45.16    \nframe=   77 fps=1.7 q=35.0 size=       0KiB time=00:00:01.54 bitrate=   2.5kbits/s speed=0.0337x elapsed=0:00:45.68    \nframe=   77 fps=1.7 q=35.0 size=       0KiB time=00:00:01.54 bitrate=   2.5kbits/s speed=0.0333x elapsed=0:00:46.19    \nframe=   77 fps=1.6 q=35.0 size=       0KiB time=00:00:01.54 bitrate=   2.5kbits/s speed=0.033x elapsed=0:00:46.70    \nframe=   78 fps=1.7 q=17.0 size=       0KiB time=00:00:01.56 bitrate=   2.5kbits/s speed=0.033x elapsed=0:00:47.22    \nframe=   79 fps=1.7 q=34.0 size=       0KiB time=00:00:01.58 bitrate=   2.4kbits/s speed=0.0331x elapsed=0:00:47.73    \nframe=   80 fps=1.7 q=33.0 size=       0KiB time=00:00:01.60 bitrate=   2.4kbits/s speed=0.0332x elapsed=0:00:48.26    \nframe=   81 fps=1.7 q=33.0 size=       0KiB time=00:00:01.62 bitrate=   2.4kbits/s speed=0.0332x elapsed=0:00:48.77    \nframe=   82 fps=1.7 q=33.0 size=       0KiB time=00:00:01.64 bitrate=   2.4kbits/s speed=0.0333x elapsed=0:00:49.29    \nframe=   83 fps=1.7 q=33.0 size=       0KiB time=00:00:01.66 bitrate=   2.3kbits/s speed=0.0333x elapsed=0:00:49.81    \nframe=   84 fps=1.7 q=33.0 size=       0KiB time=00:00:01.68 bitrate=   2.3kbits/s speed=0.0334x elapsed=0:00:50.33    \nframe=   85 fps=1.7 q=33.0 size=       0KiB time=00:00:01.70 bitrate=   2.3kbits/s speed=0.0334x elapsed=0:00:50.86    \nframe=   86 fps=1.7 q=33.0 size=       0KiB time=00:00:01.72 bitrate=   2.2kbits/s speed=0.0335x elapsed=0:00:51.38    \nframe=   87 fps=1.7 q=33.0 size=       0KiB time=00:00:01.74 bitrate=   2.2kbits/s speed=0.0335x elapsed=0:00:51.89    \nframe=   88 fps=1.7 q=34.0 size=       0KiB time=00:00:01.76 bitrate=   2.2kbits/s speed=0.0336x elapsed=0:00:52.41    \nframe=   88 fps=1.7 q=34.0 size=       0KiB time=00:00:01.76 bitrate=   2.2kbits/s speed=0.0333x elapsed=0:00:52.92    \nframe=   88 fps=1.6 q=34.0 size=       0KiB time=00:00:01.76 bitrate=   2.2kbits/s speed=0.0329x elapsed=0:00:53.44    \nframe=   88 fps=1.6 q=34.0 size=       0KiB time=00:00:01.76 bitrate=   2.2kbits/s speed=0.0326x elapsed=0:00:53.95    \nframe=   89 fps=1.6 q=16.0 size=       0KiB time=00:00:01.78 bitrate=   2.2kbits/s speed=0.0327x elapsed=0:00:54.48    \nframe=   90 fps=1.6 q=34.0 size=       0KiB time=00:00:01.80 bitrate=   2.1kbits/s speed=0.0327x elapsed=0:00:54.99    \nframe=   90 fps=1.6 q=34.0 size=       0KiB time=00:00:01.80 bitrate=   2.1kbits/s speed=0.0324x elapsed=0:00:55.50    \nframe=   91 fps=1.6 q=33.0 size=       0KiB time=00:00:01.82 bitrate=   2.1kbits/s speed=0.0325x elapsed=0:00:56.03    \nframe=   92 fps=1.6 q=33.0 size=       0KiB time=00:00:01.84 bitrate=   2.1kbits/s speed=0.0325x elapsed=0:00:56.53    \nframe=   92 fps=1.6 q=33.0 size=       0KiB time=00:00:01.84 bitrate=   2.1kbits/s speed=0.0322x elapsed=0:00:57.06    \nframe=   93 fps=1.6 q=33.0 size=       0KiB time=00:00:01.86 bitrate=   2.1kbits/s speed=0.0323x elapsed=0:00:57.57    \nframe=   93 fps=1.6 q=33.0 size=       0KiB time=00:00:01.86 bitrate=   2.1kbits/s speed=0.032x elapsed=0:00:58.08    \nframe=   94 fps=1.6 q=33.0 size=       0KiB time=00:00:01.88 bitrate=   2.1kbits/s speed=0.0321x elapsed=0:00:58.60    \nframe=   94 fps=1.6 q=33.0 size=       0KiB time=00:00:01.88 bitrate=   2.1kbits/s speed=0.0318x elapsed=0:00:59.11    \nframe=   95 fps=1.6 q=33.0 size=       0KiB time=00:00:01.90 bitrate=   2.0kbits/s speed=0.0319x elapsed=0:00:59.63    \nframe=   95 fps=1.6 q=33.0 size=       0KiB time=00:00:01.90 bitrate=   2.0kbits/s speed=0.0316x elapsed=0:01:00.15    \nframe=   96 fps=1.6 q=33.0 size=       0KiB time=00:00:01.92 bitrate=   2.0kbits/s speed=0.0316x elapsed=0:01:00.67    \nframe=   97 fps=1.6 q=34.0 size=       0KiB time=00:00:01.94 bitrate=   2.0kbits/s speed=0.0317x elapsed=0:01:01.18    \nframe=   98 fps=1.6 q=34.0 size=       0KiB time=00:00:01.96 bitrate=   2.0kbits/s speed=0.0318x elapsed=0:01:01.69    \nframe=   98 fps=1.6 q=34.0 size=       0KiB time=00:00:01.96 bitrate=   2.0kbits/s speed=0.0315x elapsed=0:01:02.22    \nframe=   99 fps=1.6 q=34.0 size=       0KiB time=00:00:01.98 bitrate=   1.9kbits/s speed=0.0316x elapsed=0:01:02.72    \nframe=   99 fps=1.6 q=34.0 size=       0KiB time=00:00:01.98 bitrate=   1.9kbits/s speed=0.0313x elapsed=0:01:03.24    \nframe=   99 fps=1.6 q=34.0 size=       0KiB time=00:00:01.98 bitrate=   1.9kbits/s speed=0.0311x elapsed=0:01:03.75    \nframe=   99 fps=1.5 q=34.0 size=       0KiB time=00:00:01.98 bitrate=   1.9kbits/s speed=0.0308x elapsed=0:01:04.26    \nframe=  100 fps=1.5 q=16.0 size=       0KiB time=00:00:02.00 bitrate=   1.9kbits/s speed=0.0309x elapsed=0:01:04.78    \nframe=  101 fps=1.5 q=34.0 size=       0KiB time=00:00:02.02 bitrate=   1.9kbits/s speed=0.0309x elapsed=0:01:05.31    \nframe=  102 fps=1.5 q=33.0 size=       0KiB time=00:00:02.04 bitrate=   1.9kbits/s speed=0.031x elapsed=0:01:05.82    \nframe=  102 fps=1.5 q=33.0 size=       0KiB time=00:00:02.04 bitrate=   1.9kbits/s speed=0.0308x elapsed=0:01:06.33    \nframe=  103 fps=1.5 q=34.0 size=       0KiB time=00:00:02.06 bitrate=   1.9kbits/s speed=0.0308x elapsed=0:01:06.84    \nframe=  103 fps=1.5 q=34.0 size=       0KiB time=00:00:02.06 bitrate=   1.9kbits/s speed=0.0306x elapsed=0:01:07.37    \nframe=  104 fps=1.5 q=34.0 size=       0KiB time=00:00:02.08 bitrate=   1.9kbits/s speed=0.0306x elapsed=0:01:07.87    \nframe=  105 fps=1.5 q=34.0 size=       0KiB time=00:00:02.10 bitrate=   1.8kbits/s speed=0.0307x elapsed=0:01:08.40    \nframe=  106 fps=1.5 q=34.0 size=       0KiB time=00:00:02.12 bitrate=   1.8kbits/s speed=0.0308x elapsed=0:01:08.91    \nframe=  107 fps=1.5 q=34.0 size=       0KiB time=00:00:02.14 bitrate=   1.8kbits/s speed=0.0308x elapsed=0:01:09.42    \nframe=  108 fps=1.5 q=34.0 size=       0KiB time=00:00:02.16 bitrate=   1.8kbits/s speed=0.0309x elapsed=0:01:09.95    \nframe=  109 fps=1.5 q=34.0 size=       0KiB time=00:00:02.18 bitrate=   1.8kbits/s speed=0.0309x elapsed=0:01:10.46    \nframe=  110 fps=1.5 q=34.0 size=       0KiB time=00:00:02.20 bitrate=   1.8kbits/s speed=0.031x elapsed=0:01:10.97    \nframe=  110 fps=1.5 q=34.0 size=       0KiB time=00:00:02.20 bitrate=   1.8kbits/s speed=0.0308x elapsed=0:01:11.49    \nframe=  110 fps=1.5 q=34.0 size=       0KiB time=00:00:02.20 bitrate=   1.8kbits/s speed=0.0306x elapsed=0:01:12.00    \nframe=  112 fps=1.5 q=36.0 size=       0KiB time=00:00:02.24 bitrate=   1.7kbits/s speed=0.0309x elapsed=0:01:12.52    \nframe=  112 fps=1.5 q=36.0 size=       0KiB time=00:00:02.24 bitrate=   1.7kbits/s speed=0.0307x elapsed=0:01:13.03    \nframe=  113 fps=1.5 q=34.0 size=       0KiB time=00:00:02.26 bitrate=   1.7kbits/s speed=0.0307x elapsed=0:01:13.55    \nframe=  114 fps=1.5 q=34.0 size=       0KiB time=00:00:02.28 bitrate=   1.7kbits/s speed=0.0308x elapsed=0:01:14.07    \nframe=  115 fps=1.5 q=34.0 size=       0KiB time=00:00:02.30 bitrate=   1.7kbits/s speed=0.0308x elapsed=0:01:14.59    \nframe=  117 fps=1.6 q=35.0 size=       0KiB time=00:00:02.34 bitrate=   1.6kbits/s speed=0.0312x elapsed=0:01:15.11    \nframe=  118 fps=1.6 q=34.0 size=       0KiB time=00:00:02.36 bitrate=   1.6kbits/s speed=0.0312x elapsed=0:01:15.62    \nframe=  119 fps=1.6 q=33.0 size=       0KiB time=00:00:02.38 bitrate=   1.6kbits/s speed=0.0313x elapsed=0:01:16.14    \nframe=  119 fps=1.6 q=33.0 size=       0KiB time=00:00:02.38 bitrate=   1.6kbits/s speed=0.031x elapsed=0:01:16.66    \nframe=  120 fps=1.6 q=17.0 size=       0KiB time=00:00:02.40 bitrate=   1.6kbits/s speed=0.0311x elapsed=0:01:17.17    \nframe=  122 fps=1.6 q=32.0 size=       0KiB time=00:00:02.44 bitrate=   1.6kbits/s speed=0.0314x elapsed=0:01:17.70    \nframe=  123 fps=1.6 q=33.0 size=       0KiB time=00:00:02.46 bitrate=   1.6kbits/s speed=0.0314x elapsed=0:01:18.22    \nframe=  124 fps=1.6 q=33.0 size=       0KiB time=00:00:02.48 bitrate=   1.6kbits/s speed=0.0315x elapsed=0:01:18.73    \nframe=  125 fps=1.6 q=33.0 size=       0KiB time=00:00:02.50 bitrate=   1.5kbits/s speed=0.0315x elapsed=0:01:19.26    \nframe=  126 fps=1.6 q=33.0 size=       0KiB time=00:00:02.52 bitrate=   1.5kbits/s speed=0.0316x elapsed=0:01:19.78    \nframe=  127 fps=1.6 q=33.0 size=       0KiB time=00:00:02.54 bitrate=   1.5kbits/s speed=0.0316x elapsed=0:01:20.29    \nframe=  128 fps=1.6 q=34.0 size=       0KiB time=00:00:02.56 bitrate=   1.5kbits/s speed=0.0317x elapsed=0:01:20.80    \nframe=  128 fps=1.6 q=34.0 size=       0KiB time=00:00:02.56 bitrate=   1.5kbits/s speed=0.0315x elapsed=0:01:21.32    \nframe=  129 fps=1.6 q=16.0 size=       0KiB time=00:00:02.58 bitrate=   1.5kbits/s speed=0.0315x elapsed=0:01:21.83    \nframe=  130 fps=1.6 q=33.0 size=    3840KiB time=00:00:02.60 bitrate=12099.0kbits/s speed=0.0316x elapsed=0:01:22.35    \nframe=  132 fps=1.6 q=32.0 size=    3840KiB time=00:00:02.64 bitrate=11915.6kbits/s speed=0.0319x elapsed=0:01:22.86    \nframe=  133 fps=1.6 q=33.0 size=    3840KiB time=00:00:02.66 bitrate=11826.0kbits/s speed=0.0319x elapsed=0:01:23.38    \nframe=  134 fps=1.6 q=33.0 size=    3840KiB time=00:00:02.68 bitrate=11737.8kbits/s speed=0.0319x elapsed=0:01:23.89    \nframe=  136 fps=1.6 q=34.0 size=    3840KiB time=00:00:02.72 bitrate=11565.2kbits/s speed=0.0322x elapsed=0:01:24.41    \nframe=  137 fps=1.6 q=34.0 size=    3840KiB time=00:00:02.74 bitrate=11480.8kbits/s speed=0.0323x elapsed=0:01:24.93    \nframe=  138 fps=1.6 q=34.0 size=    3840KiB time=00:00:02.76 bitrate=11397.6kbits/s speed=0.0323x elapsed=0:01:25.44    \nframe=  139 fps=1.6 q=34.0 size=    3840KiB time=00:00:02.78 bitrate=11315.6kbits/s speed=0.0323x elapsed=0:01:25.95    \nframe=  139 fps=1.6 q=34.0 size=    3840KiB time=00:00:02.78 bitrate=11315.6kbits/s speed=0.0321x elapsed=0:01:26.47    \nframe=  140 fps=1.6 q=15.0 size=    3840KiB time=00:00:02.80 bitrate=11234.7kbits/s speed=0.0322x elapsed=0:01:26.98    \nframe=  141 fps=1.6 q=34.0 size=    3840KiB time=00:00:02.82 bitrate=11155.1kbits/s speed=0.0322x elapsed=0:01:27.51    \nframe=  142 fps=1.6 q=33.0 size=    3840KiB time=00:00:02.84 bitrate=11076.5kbits/s speed=0.0323x elapsed=0:01:28.02    \nframe=  144 fps=1.6 q=33.0 size=    3840KiB time=00:00:02.88 bitrate=10922.7kbits/s speed=0.0325x elapsed=0:01:28.54    \nframe=  145 fps=1.6 q=33.0 size=    3840KiB time=00:00:02.90 bitrate=10847.3kbits/s speed=0.0326x elapsed=0:01:29.04    \nframe=  146 fps=1.6 q=33.0 size=    3840KiB time=00:00:02.92 bitrate=10773.0kbits/s speed=0.0326x elapsed=0:01:29.57    \nframe=  147 fps=1.6 q=33.0 size=    3840KiB time=00:00:02.94 bitrate=10699.8kbits/s speed=0.0326x elapsed=0:01:30.09    \nframe=  149 fps=1.6 q=33.0 size=    3840KiB time=00:00:02.98 bitrate=10556.1kbits/s speed=0.0329x elapsed=0:01:30.60    \nframe=  150 fps=1.6 q=33.0 size=    3840KiB time=00:00:03.00 bitrate=10485.8kbits/s speed=0.0329x elapsed=0:01:31.12    \nframe=  150 fps=1.6 q=33.0 size=    3840KiB time=00:00:03.00 bitrate=10485.8kbits/s speed=0.0327x elapsed=0:01:31.64    \nframe=  150 fps=1.6 q=33.0 size=    3840KiB time=00:00:03.00 bitrate=10485.8kbits/s speed=0.0326x elapsed=0:01:32.14    \nframe=  150 fps=1.6 q=33.0 size=    3840KiB time=00:00:03.00 bitrate=10485.8kbits/s speed=0.0324x elapsed=0:01:32.66    \nframe=  150 fps=1.6 q=33.0 size=    3840KiB time=00:00:03.00 bitrate=10485.8kbits/s speed=0.0322x elapsed=0:01:33.17    \nframe=  151 fps=1.6 q=16.0 size=    3840KiB time=00:00:03.02 bitrate=10416.3kbits/s speed=0.0322x elapsed=0:01:33.69    \nframe=  152 fps=1.6 q=33.0 size=    3840KiB time=00:00:03.04 bitrate=10347.8kbits/s speed=0.0323x elapsed=0:01:34.21    \nframe=  153 fps=1.6 q=32.0 size=    3840KiB time=00:00:03.06 bitrate=10280.2kbits/s speed=0.0323x elapsed=0:01:34.73    \nframe=  153 fps=1.6 q=32.0 size=    3840KiB time=00:00:03.06 bitrate=10280.2kbits/s speed=0.0321x elapsed=0:01:35.23    \nframe=  154 fps=1.6 q=32.0 size=    3840KiB time=00:00:03.08 bitrate=10213.4kbits/s speed=0.0322x elapsed=0:01:35.76    \nframe=  155 fps=1.6 q=32.0 size=    3840KiB time=00:00:03.10 bitrate=10147.5kbits/s speed=0.0322x elapsed=0:01:36.26    \nframe=  155 fps=1.6 q=32.0 size=    3840KiB time=00:00:03.10 bitrate=10147.5kbits/s speed=0.032x elapsed=0:01:36.78    \nframe=  156 fps=1.6 q=32.0 size=    3840KiB time=00:00:03.12 bitrate=10082.5kbits/s speed=0.0321x elapsed=0:01:37.30    \nframe=  157 fps=1.6 q=32.0 size=    3840KiB time=00:00:03.14 bitrate=10018.2kbits/s speed=0.0321x elapsed=0:01:37.82    \nframe=  158 fps=1.6 q=32.0 size=    3840KiB time=00:00:03.16 bitrate=9954.8kbits/s speed=0.0321x elapsed=0:01:38.33    \nframe=  158 fps=1.6 q=32.0 size=    3840KiB time=00:00:03.16 bitrate=9954.8kbits/s speed=0.032x elapsed=0:01:38.85    \nframe=  159 fps=1.6 q=33.0 size=    3840KiB time=00:00:03.18 bitrate=9892.2kbits/s speed=0.032x elapsed=0:01:39.36    \nframe=  160 fps=1.6 q=33.0 size=    3840KiB time=00:00:03.20 bitrate=9830.4kbits/s speed=0.032x elapsed=0:01:39.87    \nframe=  161 fps=1.6 q=33.0 size=    3840KiB time=00:00:03.22 bitrate=9769.3kbits/s speed=0.0321x elapsed=0:01:40.40    \nframe=  161 fps=1.6 q=33.0 size=    3840KiB time=00:00:03.22 bitrate=9769.3kbits/s speed=0.0319x elapsed=0:01:40.91    \nframe=  161 fps=1.6 q=33.0 size=    3840KiB time=00:00:03.22 bitrate=9769.3kbits/s speed=0.0317x elapsed=0:01:41.43    \nframe=  161 fps=1.6 q=33.0 size=    3840KiB time=00:00:03.22 bitrate=9769.3kbits/s speed=0.0316x elapsed=0:01:41.94    \nframe=  161 fps=1.6 q=33.0 size=    3840KiB time=00:00:03.22 bitrate=9769.3kbits/s speed=0.0314x elapsed=0:01:42.46    \nframe=  162 fps=1.6 q=16.0 size=    3840KiB time=00:00:03.24 bitrate=9709.0kbits/s speed=0.0315x elapsed=0:01:42.97    \nframe=  163 fps=1.6 q=33.0 size=    3840KiB time=00:00:03.26 bitrate=9649.5kbits/s speed=0.0315x elapsed=0:01:43.48    \nframe=  164 fps=1.6 q=32.0 size=    3840KiB time=00:00:03.28 bitrate=9590.6kbits/s speed=0.0315x elapsed=0:01:44.00    \nframe=  165 fps=1.6 q=32.0 size=    3840KiB time=00:00:03.30 bitrate=9532.5kbits/s speed=0.0316x elapsed=0:01:44.52    \nframe=  165 fps=1.6 q=32.0 size=    3840KiB time=00:00:03.30 bitrate=9532.5kbits/s speed=0.0314x elapsed=0:01:45.03    \nframe=  166 fps=1.6 q=32.0 size=    3840KiB time=00:00:03.32 bitrate=9475.1kbits/s speed=0.0315x elapsed=0:01:45.56    \nframe=  167 fps=1.6 q=32.0 size=    3840KiB time=00:00:03.34 bitrate=9418.3kbits/s speed=0.0315x elapsed=0:01:46.06    \nframe=  167 fps=1.6 q=32.0 size=    3840KiB time=00:00:03.34 bitrate=9418.3kbits/s speed=0.0313x elapsed=0:01:46.58    \nframe=  168 fps=1.6 q=32.0 size=    3840KiB time=00:00:03.36 bitrate=9362.3kbits/s speed=0.0314x elapsed=0:01:47.10    \nframe=  169 fps=1.6 q=32.0 size=    3840KiB time=00:00:03.38 bitrate=9306.9kbits/s speed=0.0314x elapsed=0:01:47.62    \nframe=  170 fps=1.6 q=32.0 size=    3840KiB time=00:00:03.40 bitrate=9252.1kbits/s speed=0.0314x elapsed=0:01:48.13    \nframe=  170 fps=1.6 q=32.0 size=    3840KiB time=00:00:03.40 bitrate=9252.1kbits/s speed=0.0313x elapsed=0:01:48.65    \nframe=  171 fps=1.6 q=32.0 size=    3840KiB time=00:00:03.42 bitrate=9198.0kbits/s speed=0.0313x elapsed=0:01:49.15    \nframe=  172 fps=1.6 q=32.0 size=    3840KiB time=00:00:03.44 bitrate=9144.6kbits/s speed=0.0314x elapsed=0:01:49.68    \nframe=  172 fps=1.6 q=32.0 size=    3840KiB time=00:00:03.44 bitrate=9144.6kbits/s speed=0.0312x elapsed=0:01:50.21    \nframe=  172 fps=1.6 q=32.0 size=    3840KiB time=00:00:03.44 bitrate=9144.6kbits/s speed=0.0311x elapsed=0:01:50.72    \nframe=  173 fps=1.6 q=16.0 size=    3840KiB time=00:00:03.46 bitrate=9091.7kbits/s speed=0.0311x elapsed=0:01:51.23    \nframe=  174 fps=1.6 q=32.0 size=    3840KiB time=00:00:03.48 bitrate=9039.4kbits/s speed=0.0311x elapsed=0:01:51.76    \nframe=  174 fps=1.5 q=32.0 size=    3840KiB time=00:00:03.48 bitrate=9039.4kbits/s speed=0.031x elapsed=0:01:52.28    \nframe=  175 fps=1.6 q=30.0 size=    3840KiB time=00:00:03.50 bitrate=8987.8kbits/s speed=0.031x elapsed=0:01:52.80    \nframe=  176 fps=1.6 q=30.0 size=    3840KiB time=00:00:03.52 bitrate=8936.7kbits/s speed=0.0311x elapsed=0:01:53.32    \nframe=  177 fps=1.6 q=31.0 size=    3840KiB time=00:00:03.54 bitrate=8886.2kbits/s speed=0.0311x elapsed=0:01:53.90    \nframe=  179 fps=1.6 q=31.0 size=    3840KiB time=00:00:03.58 bitrate=8786.9kbits/s speed=0.0313x elapsed=0:01:54.42    \nframe=  181 fps=1.6 q=32.0 size=    3840KiB time=00:00:03.62 bitrate=8689.9kbits/s speed=0.0314x elapsed=0:01:55.11    \nframe=  182 fps=1.6 q=32.0 size=    3840KiB time=00:00:03.64 bitrate=8642.1kbits/s speed=0.0315x elapsed=0:01:55.64    \nframe=  183 fps=1.6 q=32.0 size=    3840KiB time=00:00:03.66 bitrate=8594.9kbits/s speed=0.0315x elapsed=0:01:56.17    \nframe=  183 fps=1.6 q=32.0 size=    3840KiB time=00:00:03.66 bitrate=8594.9kbits/s speed=0.0314x elapsed=0:01:56.71    \nframe=  183 fps=1.6 q=32.0 size=    3840KiB time=00:00:03.66 bitrate=8594.9kbits/s speed=0.0312x elapsed=0:01:57.27    \nframe=  184 fps=1.6 q=15.0 size=    3840KiB time=00:00:03.68 bitrate=8548.2kbits/s speed=0.0312x elapsed=0:01:57.82    \nframe=  185 fps=1.6 q=32.0 size=    3840KiB time=00:00:03.70 bitrate=8502.0kbits/s speed=0.0312x elapsed=0:01:58.40    \nframe=  186 fps=1.6 q=31.0 size=    3840KiB time=00:00:03.72 bitrate=8456.3kbits/s speed=0.0313x elapsed=0:01:58.92    \nframe=  187 fps=1.6 q=32.0 size=    3840KiB time=00:00:03.74 bitrate=8411.0kbits/s speed=0.0313x elapsed=0:01:59.47    \nframe=  187 fps=1.6 q=32.0 size=    3840KiB time=00:00:03.74 bitrate=8411.0kbits/s speed=0.0311x elapsed=0:02:00.13    \nframe=  188 fps=1.6 q=32.0 size=    3840KiB time=00:00:03.76 bitrate=8366.3kbits/s speed=0.0312x elapsed=0:02:00.64    \nframe=  190 fps=1.6 q=32.0 size=    3840KiB time=00:00:03.80 bitrate=8278.2kbits/s speed=0.0314x elapsed=0:02:01.16    \nframe=  191 fps=1.6 q=32.0 size=    3840KiB time=00:00:03.82 bitrate=8234.9kbits/s speed=0.0314x elapsed=0:02:01.67    \nframe=  192 fps=1.6 q=32.0 size=    3840KiB time=00:00:03.84 bitrate=8192.0kbits/s speed=0.0314x elapsed=0:02:02.19    \nframe=  193 fps=1.6 q=32.0 size=    3840KiB time=00:00:03.86 bitrate=8149.6kbits/s speed=0.0315x elapsed=0:02:02.71    \nframe=  194 fps=1.6 q=32.0 size=    3840KiB time=00:00:03.88 bitrate=8107.5kbits/s speed=0.0315x elapsed=0:02:03.22    \nframe=  194 fps=1.6 q=32.0 size=    3840KiB time=00:00:03.88 bitrate=8107.5kbits/s speed=0.0314x elapsed=0:02:03.74    \nframe=  194 fps=1.6 q=32.0 size=    3840KiB time=00:00:03.88 bitrate=8107.5kbits/s speed=0.0312x elapsed=0:02:04.26    \nframe=  195 fps=1.6 q=15.0 size=    3840KiB time=00:00:03.90 bitrate=8066.0kbits/s speed=0.0313x elapsed=0:02:04.77    \nframe=  196 fps=1.6 q=32.0 size=    3840KiB time=00:00:03.92 bitrate=8024.8kbits/s speed=0.0313x elapsed=0:02:05.28    \nframe=  197 fps=1.6 q=31.0 size=    3840KiB time=00:00:03.94 bitrate=7984.1kbits/s speed=0.0313x elapsed=0:02:05.80    \nframe=  198 fps=1.6 q=31.0 size=    3840KiB time=00:00:03.96 bitrate=7943.8kbits/s speed=0.0313x elapsed=0:02:06.32    \nframe=  199 fps=1.6 q=31.0 size=    3840KiB time=00:00:03.98 bitrate=7903.8kbits/s speed=0.0314x elapsed=0:02:06.83    \nframe=  200 fps=1.6 q=31.0 size=    3840KiB time=00:00:04.00 bitrate=7864.3kbits/s speed=0.0314x elapsed=0:02:07.35    \nframe=  201 fps=1.6 q=31.0 size=    3840KiB time=00:00:04.02 bitrate=7825.2kbits/s speed=0.0314x elapsed=0:02:07.86    \nframe=  202 fps=1.6 q=32.0 size=    3840KiB time=00:00:04.04 bitrate=7786.5kbits/s speed=0.0315x elapsed=0:02:08.38    \nframe=  203 fps=1.6 q=32.0 size=    3840KiB time=00:00:04.06 bitrate=7748.1kbits/s speed=0.0315x elapsed=0:02:08.90    \nframe=  204 fps=1.6 q=32.0 size=    3840KiB time=00:00:04.08 bitrate=7710.1kbits/s speed=0.0315x elapsed=0:02:09.41    \nframe=  205 fps=1.6 q=32.0 size=    3840KiB time=00:00:04.10 bitrate=7672.5kbits/s speed=0.0316x elapsed=0:02:09.93    \nframe=  205 fps=1.6 q=32.0 size=    3840KiB time=00:00:04.10 bitrate=7672.5kbits/s speed=0.0314x elapsed=0:02:10.45    \nframe=  205 fps=1.6 q=32.0 size=    3840KiB time=00:00:04.10 bitrate=7672.5kbits/s speed=0.0313x elapsed=0:02:10.96    \nframe=  207 fps=1.6 q=32.0 size=    3840KiB time=00:00:04.14 bitrate=7598.4kbits/s speed=0.0315x elapsed=0:02:11.48    \nframe=  208 fps=1.6 q=31.0 size=    3840KiB time=00:00:04.16 bitrate=7561.8kbits/s speed=0.0315x elapsed=0:02:11.99    \nframe=  209 fps=1.6 q=31.0 size=    3840KiB time=00:00:04.18 bitrate=7525.7kbits/s speed=0.0315x elapsed=0:02:12.50    \nframe=  210 fps=1.6 q=32.0 size=    3840KiB time=00:00:04.20 bitrate=7489.8kbits/s speed=0.0316x elapsed=0:02:13.01    \nframe=  210 fps=1.6 q=32.0 size=    3840KiB time=00:00:04.20 bitrate=7489.8kbits/s speed=0.0315x elapsed=0:02:13.53    \nframe=  211 fps=1.6 q=32.0 size=    3840KiB time=00:00:04.22 bitrate=7454.3kbits/s speed=0.0315x elapsed=0:02:14.05    \nframe=  212 fps=1.6 q=32.0 size=    3840KiB time=00:00:04.24 bitrate=7419.2kbits/s speed=0.0315x elapsed=0:02:14.57    \nframe=  212 fps=1.6 q=32.0 size=    3840KiB time=00:00:04.24 bitrate=7419.2kbits/s speed=0.0314x elapsed=0:02:15.08    \nframe=  213 fps=1.6 q=32.0 size=    3840KiB time=00:00:04.26 bitrate=7384.3kbits/s speed=0.0314x elapsed=0:02:15.60    \nframe=  214 fps=1.6 q=33.0 size=    3840KiB time=00:00:04.28 bitrate=7349.8kbits/s speed=0.0314x elapsed=0:02:16.12    \nframe=  216 fps=1.6 q=33.0 size=    3840KiB time=00:00:04.32 bitrate=7281.8kbits/s speed=0.0316x elapsed=0:02:16.63    \nframe=  216 fps=1.6 q=33.0 size=    3840KiB time=00:00:04.32 bitrate=7281.8kbits/s speed=0.0315x elapsed=0:02:17.14    \nframe=  216 fps=1.6 q=33.0 size=    3840KiB time=00:00:04.32 bitrate=7281.8kbits/s speed=0.0314x elapsed=0:02:17.66    \nframe=  216 fps=1.6 q=33.0 size=    3840KiB time=00:00:04.32 bitrate=7281.8kbits/s speed=0.0313x elapsed=0:02:18.18    \nframe=  217 fps=1.6 q=15.0 size=    3840KiB time=00:00:04.34 bitrate=7248.2kbits/s speed=0.0313x elapsed=0:02:18.69    \nframe=  218 fps=1.6 q=32.0 size=    3840KiB time=00:00:04.36 bitrate=7215.0kbits/s speed=0.0313x elapsed=0:02:19.20    \nframe=  218 fps=1.6 q=32.0 size=    3840KiB time=00:00:04.36 bitrate=7215.0kbits/s speed=0.0312x elapsed=0:02:19.73    \nframe=  220 fps=1.6 q=32.0 size=    3840KiB time=00:00:04.40 bitrate=7149.4kbits/s speed=0.0314x elapsed=0:02:20.24    \nframe=  221 fps=1.6 q=32.0 size=    3840KiB time=00:00:04.42 bitrate=7117.0kbits/s speed=0.0314x elapsed=0:02:20.76    \nframe=  222 fps=1.6 q=32.0 size=    3840KiB time=00:00:04.44 bitrate=7085.0kbits/s speed=0.0314x elapsed=0:02:21.26    \nframe=  223 fps=1.6 q=33.0 size=    3840KiB time=00:00:04.46 bitrate=7053.2kbits/s speed=0.0315x elapsed=0:02:21.78    \nframe=  224 fps=1.6 q=33.0 size=    3840KiB time=00:00:04.48 bitrate=7021.7kbits/s speed=0.0315x elapsed=0:02:22.30    \nframe=  226 fps=1.6 q=33.0 size=    3840KiB time=00:00:04.52 bitrate=6959.6kbits/s speed=0.0316x elapsed=0:02:22.82    \nframe=  227 fps=1.6 q=33.0 size=    3840KiB time=00:00:04.54 bitrate=6928.9kbits/s speed=0.0317x elapsed=0:02:23.33    \nframe=  227 fps=1.6 q=33.0 size=    3840KiB time=00:00:04.54 bitrate=6928.9kbits/s speed=0.0316x elapsed=0:02:23.85    \nframe=  227 fps=1.6 q=33.0 size=    3840KiB time=00:00:04.54 bitrate=6928.9kbits/s speed=0.0314x elapsed=0:02:24.36    \nframe=  228 fps=1.6 q=16.0 size=    3840KiB time=00:00:04.56 bitrate=6898.5kbits/s speed=0.0315x elapsed=0:02:24.87    \nframe=  229 fps=1.6 q=32.0 size=    3840KiB time=00:00:04.58 bitrate=6868.4kbits/s speed=0.0315x elapsed=0:02:25.39    \nframe=  230 fps=1.6 q=30.0 size=    3840KiB time=00:00:04.60 bitrate=6838.5kbits/s speed=0.0315x elapsed=0:02:25.91    \nframe=  232 fps=1.6 q=31.0 size=    3840KiB time=00:00:04.64 bitrate=6779.6kbits/s speed=0.0317x elapsed=0:02:26.42    \nframe=  233 fps=1.6 q=31.0 size=    3840KiB time=00:00:04.66 bitrate=6750.5kbits/s speed=0.0317x elapsed=0:02:26.95    \nframe=  234 fps=1.6 q=32.0 size=    3840KiB time=00:00:04.68 bitrate=6721.6kbits/s speed=0.0317x elapsed=0:02:27.46    \nframe=  236 fps=1.6 q=32.0 size=    3840KiB time=00:00:04.72 bitrate=6664.7kbits/s speed=0.0319x elapsed=0:02:27.97    \nframe=  237 fps=1.6 q=33.0 size=    3840KiB time=00:00:04.74 bitrate=6636.6kbits/s speed=0.0319x elapsed=0:02:28.48    \nframe=  238 fps=1.6 q=33.0 size=    3840KiB time=00:00:04.76 bitrate=6608.7kbits/s speed=0.0319x elapsed=0:02:29.00    \nframe=  238 fps=1.6 q=33.0 size=    3840KiB time=00:00:04.76 bitrate=6608.7kbits/s speed=0.0318x elapsed=0:02:29.52    \nframe=  238 fps=1.6 q=33.0 size=    3840KiB time=00:00:04.76 bitrate=6608.7kbits/s speed=0.0317x elapsed=0:02:30.03    \nframe=  240 fps=1.6 q=34.0 size=    3840KiB time=00:00:04.80 bitrate=6553.6kbits/s speed=0.0319x elapsed=0:02:30.55    \nframe=  241 fps=1.6 q=33.0 size=    3840KiB time=00:00:04.82 bitrate=6526.4kbits/s speed=0.0319x elapsed=0:02:31.06    \nframe=  242 fps=1.6 q=34.0 size=    3840KiB time=00:00:04.84 bitrate=6499.4kbits/s speed=0.0319x elapsed=0:02:31.58    \nframe=  243 fps=1.6 q=34.0 size=    3840KiB time=00:00:04.86 bitrate=6472.7kbits/s speed=0.032x elapsed=0:02:32.10    \nframe=  245 fps=1.6 q=35.0 size=    3840KiB time=00:00:04.90 bitrate=6419.9kbits/s speed=0.0321x elapsed=0:02:32.62    \nframe=  246 fps=1.6 q=35.0 size=    3840KiB time=00:00:04.92 bitrate=6393.8kbits/s speed=0.0321x elapsed=0:02:33.14    \nframe=  247 fps=1.6 q=35.0 size=    3840KiB time=00:00:04.94 bitrate=6367.9kbits/s speed=0.0322x elapsed=0:02:33.64    \nframe=  247 fps=1.6 q=35.0 size=    3840KiB time=00:00:04.94 bitrate=6367.9kbits/s speed=0.032x elapsed=0:02:34.16    \nframe=  247 fps=1.6 q=35.0 size=    3840KiB time=00:00:04.94 bitrate=6367.9kbits/s speed=0.0319x elapsed=0:02:34.68    \nframe=  248 fps=1.6 q=17.0 size=    3840KiB time=00:00:04.96 bitrate=6342.2kbits/s speed=0.032x elapsed=0:02:35.19    \nframe=  249 fps=1.6 q=35.0 size=    3840KiB time=00:00:04.98 bitrate=6316.7kbits/s speed=0.032x elapsed=0:02:35.71    \nframe=  251 fps=1.6 q=34.0 size=    3840KiB time=00:00:05.02 bitrate=6266.4kbits/s speed=0.0321x elapsed=0:02:36.22    \nframe=  252 fps=1.6 q=34.0 size=    3840KiB time=00:00:05.04 bitrate=6241.5kbits/s speed=0.0322x elapsed=0:02:36.73    \nframe=  253 fps=1.6 q=34.0 size=    3840KiB time=00:00:05.06 bitrate=6216.9kbits/s speed=0.0322x elapsed=0:02:37.25    \nframe=  254 fps=1.6 q=34.0 size=    3840KiB time=00:00:05.08 bitrate=6192.4kbits/s speed=0.0322x elapsed=0:02:37.77    \nframe=  256 fps=1.6 q=35.0 size=    3840KiB time=00:00:05.12 bitrate=6144.0kbits/s speed=0.0323x elapsed=0:02:38.29    \nframe=  256 fps=1.6 q=35.0 size=    3840KiB time=00:00:05.12 bitrate=6144.0kbits/s speed=0.0322x elapsed=0:02:38.80    \nframe=  256 fps=1.6 q=35.0 size=    3840KiB time=00:00:05.12 bitrate=6144.0kbits/s speed=0.0321x elapsed=0:02:39.31    \nframe=  257 fps=1.6 q=16.0 size=    3840KiB time=00:00:05.14 bitrate=6120.1kbits/s speed=0.0322x elapsed=0:02:39.84    \nframe=  259 fps=1.6 q=32.0 size=    7936KiB time=00:00:05.18 bitrate=12550.5kbits/s speed=0.0323x elapsed=0:02:40.34    \nframe=  260 fps=1.6 q=33.0 size=    7936KiB time=00:00:05.20 bitrate=12502.3kbits/s speed=0.0323x elapsed=0:02:40.86    \nframe=  261 fps=1.6 q=33.0 size=    7936KiB time=00:00:05.22 bitrate=12454.4kbits/s speed=0.0323x elapsed=0:02:41.38    \nframe=  262 fps=1.6 q=33.0 size=    7936KiB time=00:00:05.24 bitrate=12406.8kbits/s speed=0.0324x elapsed=0:02:41.89    \nframe=  263 fps=1.6 q=33.0 size=    7936KiB time=00:00:05.26 bitrate=12359.6kbits/s speed=0.0324x elapsed=0:02:42.41    \nframe=  265 fps=1.6 q=33.0 size=    7936KiB time=00:00:05.30 bitrate=12266.4kbits/s speed=0.0325x elapsed=0:02:42.92    \nframe=  266 fps=1.6 q=33.0 size=    7936KiB time=00:00:05.32 bitrate=12220.2kbits/s speed=0.0325x elapsed=0:02:43.44    \nframe=  267 fps=1.6 q=33.0 size=    7936KiB time=00:00:05.34 bitrate=12174.5kbits/s speed=0.0326x elapsed=0:02:43.96    \nframe=  267 fps=1.6 q=33.0 size=    7936KiB time=00:00:05.34 bitrate=12174.5kbits/s speed=0.0325x elapsed=0:02:44.48    \nframe=  267 fps=1.6 q=33.0 size=    7936KiB time=00:00:05.34 bitrate=12174.5kbits/s speed=0.0324x elapsed=0:02:44.98    \nframe=  268 fps=1.6 q=15.0 size=    7936KiB time=00:00:05.36 bitrate=12129.1kbits/s speed=0.0324x elapsed=0:02:45.50    \nframe=  269 fps=1.6 q=33.0 size=    7936KiB time=00:00:05.38 bitrate=12084.0kbits/s speed=0.0324x elapsed=0:02:46.02    \nframe=  270 fps=1.6 q=32.0 size=    7936KiB time=00:00:05.40 bitrate=12039.2kbits/s speed=0.0324x elapsed=0:02:46.54    \nframe=  271 fps=1.6 q=32.0 size=    7936KiB time=00:00:05.42 bitrate=11994.8kbits/s speed=0.0324x elapsed=0:02:47.05    \nframe=  272 fps=1.6 q=32.0 size=    7936KiB time=00:00:05.44 bitrate=11950.7kbits/s speed=0.0325x elapsed=0:02:47.56    \nframe=  273 fps=1.6 q=32.0 size=    7936KiB time=00:00:05.46 bitrate=11906.9kbits/s speed=0.0325x elapsed=0:02:48.08    \nframe=  274 fps=1.6 q=33.0 size=    7936KiB time=00:00:05.48 bitrate=11863.5kbits/s speed=0.0325x elapsed=0:02:48.61    \nframe=  275 fps=1.6 q=33.0 size=    7936KiB time=00:00:05.50 bitrate=11820.3kbits/s speed=0.0325x elapsed=0:02:49.13    \nframe=  276 fps=1.6 q=33.0 size=    7936KiB time=00:00:05.52 bitrate=11777.5kbits/s speed=0.0325x elapsed=0:02:49.64    \nframe=  277 fps=1.6 q=33.0 size=    7936KiB time=00:00:05.54 bitrate=11735.0kbits/s speed=0.0326x elapsed=0:02:50.16    \nframe=  278 fps=1.6 q=33.0 size=    7936KiB time=00:00:05.56 bitrate=11692.8kbits/s speed=0.0326x elapsed=0:02:50.68    \nframe=  278 fps=1.6 q=33.0 size=    7936KiB time=00:00:05.56 bitrate=11692.8kbits/s speed=0.0325x elapsed=0:02:51.19    \nframe=  279 fps=1.6 q=16.0 size=    7936KiB time=00:00:05.58 bitrate=11650.8kbits/s speed=0.0325x elapsed=0:02:51.70    \nframe=  280 fps=1.6 q=33.0 size=    7936KiB time=00:00:05.60 bitrate=11609.2kbits/s speed=0.0325x elapsed=0:02:52.22    \nframe=  281 fps=1.6 q=31.0 size=    7936KiB time=00:00:05.62 bitrate=11567.9kbits/s speed=0.0325x elapsed=0:02:52.73    \nframe=  283 fps=1.6 q=32.0 size=    7936KiB time=00:00:05.66 bitrate=11486.2kbits/s speed=0.0327x elapsed=0:02:53.25    \nframe=  283 fps=1.6 q=32.0 size=    7936KiB time=00:00:05.66 bitrate=11486.2kbits/s speed=0.0326x elapsed=0:02:53.77    \nframe=  284 fps=1.6 q=31.0 size=    7936KiB time=00:00:05.68 bitrate=11445.7kbits/s speed=0.0326x elapsed=0:02:54.28    \nframe=  285 fps=1.6 q=31.0 size=    7936KiB time=00:00:05.70 bitrate=11405.6kbits/s speed=0.0326x elapsed=0:02:54.80    \nframe=  287 fps=1.6 q=31.0 size=    7936KiB time=00:00:05.74 bitrate=11326.1kbits/s speed=0.0327x elapsed=0:02:55.32    \nframe=  287 fps=1.6 q=31.0 size=    7936KiB time=00:00:05.74 bitrate=11326.1kbits/s speed=0.0326x elapsed=0:02:55.84    \nframe=  289 fps=1.6 q=32.0 size=    7936KiB time=00:00:05.78 bitrate=11247.7kbits/s speed=0.0328x elapsed=0:02:56.34    \nframe=  289 fps=1.6 q=32.0 size=    7936KiB time=00:00:05.78 bitrate=11247.7kbits/s speed=0.0327x elapsed=0:02:56.98    \nframe=  290 fps=1.6 q=16.0 size=    7936KiB time=00:00:05.78 bitrate=11247.7kbits/s speed=0.0326x elapsed=0:02:57.51    \nframe=  291 fps=1.6 q=32.0 size=    7936KiB time=00:00:05.82 bitrate=11170.4kbits/s speed=0.0327x elapsed=0:02:58.06    \nframe=  292 fps=1.6 q=31.0 size=    7936KiB time=00:00:05.84 bitrate=11132.1kbits/s speed=0.0327x elapsed=0:02:58.58    \nframe=  294 fps=1.6 q=32.0 size=    7936KiB time=00:00:05.86 bitrate=11094.1kbits/s speed=0.0327x elapsed=0:02:59.15    \nframe=  295 fps=1.6 q=32.0 size=    7936KiB time=00:00:05.90 bitrate=11018.9kbits/s speed=0.0328x elapsed=0:02:59.75    \nframe=  297 fps=1.6 q=33.0 size=    7936KiB time=00:00:05.94 bitrate=10944.7kbits/s speed=0.0329x elapsed=0:03:00.33    \nframe=  298 fps=1.6 q=33.0 size=    7936KiB time=00:00:05.96 bitrate=10908.0kbits/s speed=0.0329x elapsed=0:03:00.96    \nframe=  300 fps=1.7 q=33.0 size=    7936KiB time=00:00:06.00 bitrate=10835.3kbits/s speed=0.0331x elapsed=0:03:01.48    \nframe=  300 fps=1.6 q=33.0 size=    7936KiB time=00:00:06.00 bitrate=10835.3kbits/s speed=0.033x elapsed=0:03:02.02    \nframe=  300 fps=1.6 q=33.0 size=    7936KiB time=00:00:06.00 bitrate=10835.3kbits/s speed=0.0329x elapsed=0:03:02.53    \nframe=  300 fps=1.6 q=33.0 size=    7936KiB time=00:00:06.00 bitrate=10835.3kbits/s speed=0.0328x elapsed=0:03:03.05    \nframe=  301 fps=1.6 q=16.0 size=    7936KiB time=00:00:06.02 bitrate=10799.3kbits/s speed=0.0328x elapsed=0:03:03.56    \nframe=  301 fps=1.6 q=16.0 size=    7936KiB time=00:00:06.02 bitrate=10799.3kbits/s speed=0.0327x elapsed=0:03:04.08    \nframe=  302 fps=1.6 q=33.0 size=    7936KiB time=00:00:06.04 bitrate=10763.5kbits/s speed=0.0327x elapsed=0:03:04.59    \nframe=  303 fps=1.6 q=31.0 size=    7936KiB time=00:00:06.06 bitrate=10728.0kbits/s speed=0.0327x elapsed=0:03:05.11    \nframe=  303 fps=1.6 q=31.0 size=    7936KiB time=00:00:06.06 bitrate=10728.0kbits/s speed=0.0326x elapsed=0:03:05.63    \nframe=  304 fps=1.6 q=32.0 size=    7936KiB time=00:00:06.08 bitrate=10692.7kbits/s speed=0.0327x elapsed=0:03:06.16    \nframe=  305 fps=1.6 q=32.0 size=    7936KiB time=00:00:06.10 bitrate=10657.7kbits/s speed=0.0327x elapsed=0:03:06.70    \nframe=  307 fps=1.6 q=32.0 size=    7936KiB time=00:00:06.14 bitrate=10588.2kbits/s speed=0.0328x elapsed=0:03:07.27    \nframe=  308 fps=1.6 q=32.0 size=    7936KiB time=00:00:06.16 bitrate=10553.8kbits/s speed=0.0328x elapsed=0:03:07.79    \nframe=  310 fps=1.6 q=32.0 size=    7936KiB time=00:00:06.20 bitrate=10485.8kbits/s speed=0.0329x elapsed=0:03:08.34    \nframe=  311 fps=1.6 q=33.0 size=    7936KiB time=00:00:06.22 bitrate=10452.0kbits/s speed=0.0329x elapsed=0:03:08.88    \nframe=  311 fps=1.6 q=33.0 size=    7936KiB time=00:00:06.22 bitrate=10452.0kbits/s speed=0.0328x elapsed=0:03:09.43    \nframe=  312 fps=1.6 q=16.0 size=    7936KiB time=00:00:06.24 bitrate=10418.5kbits/s speed=0.0328x elapsed=0:03:09.96    \nframe=  314 fps=1.6 q=32.0 size=    7936KiB time=00:00:06.28 bitrate=10352.2kbits/s speed=0.033x elapsed=0:03:10.50    \nframe=  316 fps=1.7 q=33.0 size=    7936KiB time=00:00:06.32 bitrate=10286.7kbits/s speed=0.0331x elapsed=0:03:11.03    \nframe=  317 fps=1.7 q=33.0 size=    7936KiB time=00:00:06.34 bitrate=10254.2kbits/s speed=0.0331x elapsed=0:03:11.57    \nframe=  319 fps=1.7 q=33.0 size=    7936KiB time=00:00:06.38 bitrate=10189.9kbits/s speed=0.0332x elapsed=0:03:12.14    \nframe=  320 fps=1.7 q=34.0 size=    7936KiB time=00:00:06.40 bitrate=10158.1kbits/s speed=0.0332x elapsed=0:03:12.69    \nframe=  322 fps=1.7 q=34.0 size=    7936KiB time=00:00:06.42 bitrate=10126.4kbits/s speed=0.0332x elapsed=0:03:13.21    \nframe=  322 fps=1.7 q=34.0 size=    7936KiB time=00:00:06.44 bitrate=10095.0kbits/s speed=0.0332x elapsed=0:03:13.73    \nframe=  323 fps=1.7 q=16.0 size=    7936KiB time=00:00:06.46 bitrate=10063.7kbits/s speed=0.0333x elapsed=0:03:14.27    \nframe=  325 fps=1.7 q=34.0 size=    7936KiB time=00:00:06.50 bitrate=10001.8kbits/s speed=0.0334x elapsed=0:03:14.81    \nframe=  326 fps=1.7 q=34.0 size=    7936KiB time=00:00:06.52 bitrate=9971.1kbits/s speed=0.0334x elapsed=0:03:15.31    \nframe=  328 fps=1.7 q=34.0 size=    7936KiB time=00:00:06.56 bitrate=9910.3kbits/s speed=0.0335x elapsed=0:03:15.84    \nframe=  330 fps=1.7 q=35.0 size=    7936KiB time=00:00:06.58 bitrate=9880.2kbits/s speed=0.0335x elapsed=0:03:16.56    \nframe=  332 fps=1.7 q=35.0 size=    7936KiB time=00:00:06.62 bitrate=9820.5kbits/s speed=0.0336x elapsed=0:03:17.23    \nframe=  333 fps=1.7 q=35.0 size=    7936KiB time=00:00:06.66 bitrate=9761.5kbits/s speed=0.0337x elapsed=0:03:17.90    \nframe=  333 fps=1.7 q=35.0 size=    7936KiB time=00:00:06.66 bitrate=9761.5kbits/s speed=0.0336x elapsed=0:03:18.45    \nframe=  335 fps=1.7 q=35.0 size=    7936KiB time=00:00:06.70 bitrate=9703.2kbits/s speed=0.0337x elapsed=0:03:19.07    \nframe=  337 fps=1.7 q=34.0 size=    7936KiB time=00:00:06.74 bitrate=9645.7kbits/s speed=0.0338x elapsed=0:03:19.61    \nframe=  339 fps=1.7 q=33.0 size=    7936KiB time=00:00:06.76 bitrate=9617.1kbits/s speed=0.0337x elapsed=0:03:20.32    \nframe=  340 fps=1.7 q=33.0 size=    7936KiB time=00:00:06.80 bitrate=9560.5kbits/s speed=0.0338x elapsed=0:03:20.95    \nframe=  342 fps=1.7 q=33.0 size=    7936KiB time=00:00:06.84 bitrate=9504.6kbits/s speed=0.0339x elapsed=0:03:21.54    \nframe=  344 fps=1.7 q=34.0 size=    7936KiB time=00:00:06.88 bitrate=9449.4kbits/s speed=0.034x elapsed=0:03:22.18    \nframe=  344 fps=1.7 q=34.0 size=    7936KiB time=00:00:06.88 bitrate=9449.4kbits/s speed=0.0339x elapsed=0:03:22.77    \nframe=  346 fps=1.7 q=34.0 size=    7936KiB time=00:00:06.90 bitrate=9422.0kbits/s speed=0.0339x elapsed=0:03:23.34    \nframe=  347 fps=1.7 q=33.0 size=    7936KiB time=00:00:06.94 bitrate=9367.7kbits/s speed=0.034x elapsed=0:03:23.95    \nframe=  349 fps=1.7 q=34.0 size=    7936KiB time=00:00:06.98 bitrate=9314.0kbits/s speed=0.0341x elapsed=0:03:24.60    \nframe=  351 fps=1.7 q=35.0 size=    7936KiB time=00:00:07.02 bitrate=9260.9kbits/s speed=0.0342x elapsed=0:03:25.31    \nframe=  353 fps=1.7 q=35.0 size=    7936KiB time=00:00:07.06 bitrate=9208.5kbits/s speed=0.0343x elapsed=0:03:25.91    \nframe=  355 fps=1.7 q=35.0 size=    7936KiB time=00:00:07.10 bitrate=9156.6kbits/s speed=0.0344x elapsed=0:03:26.54    \nframe=  355 fps=1.7 q=35.0 size=    7936KiB time=00:00:07.10 bitrate=9156.6kbits/s speed=0.0343x elapsed=0:03:27.22    \nframe=  356 fps=1.7 q=17.0 size=    7936KiB time=00:00:07.12 bitrate=9130.9kbits/s speed=0.0342x elapsed=0:03:27.93    \nframe=  358 fps=1.7 q=33.0 size=    7936KiB time=00:00:07.16 bitrate=9079.8kbits/s speed=0.0343x elapsed=0:03:28.54    \nframe=  360 fps=1.7 q=33.0 size=    7936KiB time=00:00:07.18 bitrate=9054.6kbits/s speed=0.0343x elapsed=0:03:29.24    \nframe=  361 fps=1.7 q=34.0 size=    7936KiB time=00:00:07.22 bitrate=9004.4kbits/s speed=0.0344x elapsed=0:03:29.89    \nframe=  363 fps=1.7 q=34.0 size=    7936KiB time=00:00:07.26 bitrate=8954.8kbits/s speed=0.0345x elapsed=0:03:30.56    \nframe=  365 fps=1.7 q=34.0 size=    7936KiB time=00:00:07.28 bitrate=8930.2kbits/s speed=0.0345x elapsed=0:03:31.15    \nframe=  366 fps=1.7 q=34.0 size=    7936KiB time=00:00:07.32 bitrate=8881.4kbits/s speed=0.0345x elapsed=0:03:31.93    \nframe=  366 fps=1.7 q=34.0 size=    7936KiB time=00:00:07.32 bitrate=8881.4kbits/s speed=0.0344x elapsed=0:03:32.61    \nframe=  368 fps=1.7 q=36.0 size=    7936KiB time=00:00:07.36 bitrate=8833.1kbits/s speed=0.0345x elapsed=0:03:33.22    \nframe=  370 fps=1.7 q=35.0 size=    7936KiB time=00:00:07.40 bitrate=8785.4kbits/s speed=0.0346x elapsed=0:03:33.96    \nframe=  372 fps=1.7 q=35.0 size=    7936KiB time=00:00:07.42 bitrate=8761.7kbits/s speed=0.0346x elapsed=0:03:34.58    \nframe=  374 fps=1.7 q=35.0 size=    7936KiB time=00:00:07.46 bitrate=8714.7kbits/s speed=0.0347x elapsed=0:03:35.25    \nframe=  375 fps=1.7 q=35.0 size=    7936KiB time=00:00:07.50 bitrate=8668.2kbits/s speed=0.0347x elapsed=0:03:35.83    \nframe=  375 fps=1.7 q=35.0 size=    7936KiB time=00:00:07.50 bitrate=8668.2kbits/s speed=0.0346x elapsed=0:03:36.55    \nframe=  377 fps=1.7 q=35.0 size=    7936KiB time=00:00:07.54 bitrate=8622.2kbits/s speed=0.0347x elapsed=0:03:37.30    \nframe=  379 fps=1.7 q=34.0 size=    7936KiB time=00:00:07.58 bitrate=8576.7kbits/s speed=0.0348x elapsed=0:03:37.95    \nframe=  381 fps=1.7 q=34.0 size=    7936KiB time=00:00:07.62 bitrate=8531.7kbits/s speed=0.0349x elapsed=0:03:38.56    \nframe=  383 fps=1.7 q=35.0 size=    7936KiB time=00:00:07.66 bitrate=8487.2kbits/s speed=0.0349x elapsed=0:03:39.18    \nframe=  384 fps=1.7 q=35.0 size=    7936KiB time=00:00:07.68 bitrate=8465.1kbits/s speed=0.0349x elapsed=0:03:39.82    \nframe=  385 fps=1.7 q=17.0 size=    7936KiB time=00:00:07.70 bitrate=8443.1kbits/s speed=0.0349x elapsed=0:03:40.47    \nframe=  387 fps=1.8 q=33.0 size=   11776KiB time=00:00:07.74 bitrate=12463.7kbits/s speed=0.035x elapsed=0:03:41.09    \nframe=  389 fps=1.8 q=33.0 size=   11776KiB time=00:00:07.78 bitrate=12399.6kbits/s speed=0.0351x elapsed=0:03:41.75    \nframe=  391 fps=1.8 q=34.0 size=   11776KiB time=00:00:07.82 bitrate=12336.2kbits/s speed=0.0352x elapsed=0:03:42.44    \nframe=  394 fps=1.8 q=33.0 size=   11776KiB time=00:00:07.86 bitrate=12273.4kbits/s speed=0.0352x elapsed=0:03:43.02    \nframe=  395 fps=1.8 q=32.0 size=   11776KiB time=00:00:07.90 bitrate=12211.3kbits/s speed=0.0353x elapsed=0:03:43.65    \nframe=  396 fps=1.8 q=15.0 size=   11776KiB time=00:00:07.92 bitrate=12180.4kbits/s speed=0.0353x elapsed=0:03:44.30    \nframe=  398 fps=1.8 q=32.0 size=   11776KiB time=00:00:07.94 bitrate=12149.7kbits/s speed=0.0353x elapsed=0:03:44.91    \nframe=  399 fps=1.8 q=32.0 size=   11776KiB time=00:00:07.98 bitrate=12088.8kbits/s speed=0.0354x elapsed=0:03:45.57    \nframe=  401 fps=1.8 q=33.0 size=   11776KiB time=00:00:08.02 bitrate=12028.6kbits/s speed=0.0355x elapsed=0:03:46.12    \nframe=  402 fps=1.8 q=33.0 size=   11776KiB time=00:00:08.04 bitrate=11998.6kbits/s speed=0.0355x elapsed=0:03:46.73    \nframe=  404 fps=1.8 q=34.0 size=   11776KiB time=00:00:08.08 bitrate=11939.2kbits/s speed=0.0355x elapsed=0:03:47.29    \nframe=  406 fps=1.8 q=35.0 size=   11776KiB time=00:00:08.12 bitrate=11880.4kbits/s speed=0.0356x elapsed=0:03:47.87    \nframe=  406 fps=1.8 q=35.0 size=   11776KiB time=00:00:08.12 bitrate=11880.4kbits/s speed=0.0355x elapsed=0:03:48.63    \nframe=  408 fps=1.8 q=34.0 size=   11776KiB time=00:00:08.16 bitrate=11822.2kbits/s speed=0.0356x elapsed=0:03:49.24    \nframe=  409 fps=1.8 q=33.0 size=   11776KiB time=00:00:08.18 bitrate=11793.3kbits/s speed=0.0356x elapsed=0:03:49.89    \nframe=  411 fps=1.8 q=33.0 size=   11776KiB time=00:00:08.22 bitrate=11735.9kbits/s speed=0.0357x elapsed=0:03:50.49    \nframe=  413 fps=1.8 q=33.0 size=   11776KiB time=00:00:08.26 bitrate=11679.1kbits/s speed=0.0357x elapsed=0:03:51.10    \nframe=  415 fps=1.8 q=34.0 size=   11776KiB time=00:00:08.30 bitrate=11622.8kbits/s speed=0.0358x elapsed=0:03:51.75    \nframe=  417 fps=1.8 q=34.0 size=   11776KiB time=00:00:08.34 bitrate=11567.0kbits/s speed=0.0359x elapsed=0:03:52.36    \nframe=  417 fps=1.8 q=34.0 size=   11776KiB time=00:00:08.34 bitrate=11567.0kbits/s speed=0.0358x elapsed=0:03:52.98    \nframe=  418 fps=1.8 q=16.0 size=   11776KiB time=00:00:08.36 bitrate=11539.4kbits/s speed=0.0358x elapsed=0:03:53.64    \nframe=  420 fps=1.8 q=33.0 size=   11776KiB time=00:00:08.40 bitrate=11484.4kbits/s speed=0.0358x elapsed=0:03:54.32    \nframe=  422 fps=1.8 q=33.0 size=   11776KiB time=00:00:08.44 bitrate=11430.0kbits/s speed=0.0359x elapsed=0:03:55.01    \nframe=  424 fps=1.8 q=33.0 size=   11776KiB time=00:00:08.48 bitrate=11376.1kbits/s speed=0.036x elapsed=0:03:55.62    \nframe=  425 fps=1.8 q=33.0 size=   11776KiB time=00:00:08.50 bitrate=11349.3kbits/s speed=0.036x elapsed=0:03:56.20    \nframe=  427 fps=1.8 q=34.0 size=   11776KiB time=00:00:08.54 bitrate=11296.1kbits/s speed=0.0361x elapsed=0:03:56.84    \nframe=  428 fps=1.8 q=34.0 size=   11776KiB time=00:00:08.56 bitrate=11269.7kbits/s speed=0.036x elapsed=0:03:57.56    \nframe=  428 fps=1.8 q=34.0 size=   11776KiB time=00:00:08.56 bitrate=11269.7kbits/s speed=0.0359x elapsed=0:03:58.28    \nframe=  431 fps=1.8 q=33.0 size=   11776KiB time=00:00:08.60 bitrate=11217.3kbits/s speed=0.036x elapsed=0:03:58.84    \nframe=  432 fps=1.8 q=33.0 size=   11776KiB time=00:00:08.64 bitrate=11165.4kbits/s speed=0.0361x elapsed=0:03:59.55    \nframe=  433 fps=1.8 q=33.0 size=   11776KiB time=00:00:08.66 bitrate=11139.6kbits/s speed=0.0361x elapsed=0:04:00.18    \nframe=  435 fps=1.8 q=34.0 size=   11776KiB time=00:00:08.70 bitrate=11088.4kbits/s speed=0.0361x elapsed=0:04:00.75    \nframe=  437 fps=1.8 q=34.0 size=   11776KiB time=00:00:08.74 bitrate=11037.6kbits/s speed=0.0362x elapsed=0:04:01.44    \nframe=  439 fps=1.8 q=34.0 size=   11776KiB time=00:00:08.78 bitrate=10987.4kbits/s speed=0.0363x elapsed=0:04:02.09    \nframe=  439 fps=1.8 q=34.0 size=   11776KiB time=00:00:08.78 bitrate=10987.4kbits/s speed=0.0362x elapsed=0:04:02.68    \nframe=  441 fps=1.8 q=34.0 size=   11776KiB time=00:00:08.82 bitrate=10937.5kbits/s speed=0.0363x elapsed=0:04:03.21    \nframe=  443 fps=1.8 q=33.0 size=   11776KiB time=00:00:08.86 bitrate=10888.1kbits/s speed=0.0363x elapsed=0:04:03.79    \nframe=  445 fps=1.8 q=33.0 size=   11776KiB time=00:00:08.90 bitrate=10839.2kbits/s speed=0.0364x elapsed=0:04:04.33    \nframe=  446 fps=1.8 q=33.0 size=   11776KiB time=00:00:08.92 bitrate=10814.9kbits/s speed=0.0364x elapsed=0:04:04.94    \nframe=  448 fps=1.8 q=33.0 size=   11776KiB time=00:00:08.96 bitrate=10766.6kbits/s speed=0.0365x elapsed=0:04:05.51    \nframe=  450 fps=1.8 q=32.0 size=   11776KiB time=00:00:08.98 bitrate=10742.6kbits/s speed=0.0365x elapsed=0:04:06.09    \nframe=  450 fps=1.8 q=32.0 size=   11776KiB time=00:00:09.00 bitrate=10718.8kbits/s speed=0.0365x elapsed=0:04:06.65    \nframe=  450 fps=1.8 q=32.0 size=   11776KiB time=00:00:09.00 bitrate=10718.8kbits/s speed=0.0364x elapsed=0:04:07.26    \nframe=  452 fps=1.8 q=33.0 size=   11776KiB time=00:00:09.02 bitrate=10695.0kbits/s speed=0.0364x elapsed=0:04:08.00    \nframe=  453 fps=1.8 q=32.0 size=   11776KiB time=00:00:09.06 bitrate=10647.8kbits/s speed=0.0364x elapsed=0:04:08.69    \nframe=  455 fps=1.8 q=33.0 size=   11776KiB time=00:00:09.10 bitrate=10601.0kbits/s speed=0.0365x elapsed=0:04:09.35    \nframe=  456 fps=1.8 q=33.0 size=   11776KiB time=00:00:09.12 bitrate=10577.7kbits/s speed=0.0365x elapsed=0:04:10.02    \nframe=  458 fps=1.8 q=33.0 size=   11776KiB time=00:00:09.16 bitrate=10531.5kbits/s speed=0.0366x elapsed=0:04:10.56    \nframe=  460 fps=1.8 q=34.0 size=   11776KiB time=00:00:09.20 bitrate=10485.8kbits/s speed=0.0366x elapsed=0:04:11.16    \nframe=  461 fps=1.8 q=34.0 size=   11776KiB time=00:00:09.22 bitrate=10463.0kbits/s speed=0.0366x elapsed=0:04:11.82    \nframe=  461 fps=1.8 q=34.0 size=   11776KiB time=00:00:09.22 bitrate=10463.0kbits/s speed=0.0365x elapsed=0:04:12.49    \nframe=  463 fps=1.8 q=33.0 size=   11776KiB time=00:00:09.26 bitrate=10417.8kbits/s speed=0.0366x elapsed=0:04:13.03    \nframe=  464 fps=1.8 q=33.0 size=   11776KiB time=00:00:09.28 bitrate=10395.4kbits/s speed=0.0366x elapsed=0:04:13.62    \nframe=  466 fps=1.8 q=33.0 size=   11776KiB time=00:00:09.32 bitrate=10350.8kbits/s speed=0.0367x elapsed=0:04:14.24    \nframe=  468 fps=1.8 q=33.0 size=   11776KiB time=00:00:09.34 bitrate=10328.6kbits/s speed=0.0366x elapsed=0:04:14.85    \nframe=  469 fps=1.8 q=33.0 size=   11776KiB time=00:00:09.38 bitrate=10284.5kbits/s speed=0.0367x elapsed=0:04:15.49    \nframe=  470 fps=1.8 q=33.0 size=   11776KiB time=00:00:09.40 bitrate=10262.7kbits/s speed=0.0367x elapsed=0:04:16.11    \nframe=  472 fps=1.8 q=33.0 size=   11776KiB time=00:00:09.44 bitrate=10219.2kbits/s speed=0.0368x elapsed=0:04:16.66    \nframe=  472 fps=1.8 q=33.0 size=   11776KiB time=00:00:09.44 bitrate=10219.2kbits/s speed=0.0367x elapsed=0:04:17.24    \nframe=  474 fps=1.8 q=33.0 size=   11776KiB time=00:00:09.48 bitrate=10176.1kbits/s speed=0.0368x elapsed=0:04:17.91    \nframe=  476 fps=1.8 q=32.0 size=   11776KiB time=00:00:09.52 bitrate=10133.3kbits/s speed=0.0368x elapsed=0:04:18.51    \nframe=  476 fps=1.8 q=32.0 size=   11776KiB time=00:00:09.52 bitrate=10133.3kbits/s speed=0.0367x elapsed=0:04:19.12    \nframe=  476 fps=1.8 q=32.0 size=   11776KiB time=00:00:09.52 bitrate=10133.3kbits/s speed=0.0367x elapsed=0:04:19.66    \nframe=  476 fps=1.8 q=32.0 size=   11776KiB time=00:00:09.52 bitrate=10133.3kbits/s speed=0.0366x elapsed=0:04:20.18    \nframe=  476 fps=1.8 q=32.0 size=   11776KiB time=00:00:09.52 bitrate=10133.3kbits/s speed=0.0365x elapsed=0:04:20.77    \nframe=  476 fps=1.8 q=32.0 size=   11776KiB time=00:00:09.52 bitrate=10133.3kbits/s speed=0.0364x elapsed=0:04:21.44    \nframe=  476 fps=1.8 q=32.0 size=   11776KiB time=00:00:09.52 bitrate=10133.3kbits/s speed=0.0363x elapsed=0:04:22.12    \nframe=  476 fps=1.8 q=32.0 size=   11776KiB time=00:00:09.52 bitrate=10133.3kbits/s speed=0.0362x elapsed=0:04:22.83    \nframe=  476 fps=1.8 q=32.0 size=   11776KiB time=00:00:09.52 bitrate=10133.3kbits/s speed=0.0361x elapsed=0:04:23.45    \nframe=  476 fps=1.8 q=32.0 size=   11776KiB time=00:00:09.52 bitrate=10133.3kbits/s speed=0.036x elapsed=0:04:24.07    \nframe=  476 fps=1.8 q=32.0 size=   11776KiB time=00:00:09.52 bitrate=10133.3kbits/s speed=0.036x elapsed=0:04:24.65    \nframe=  476 fps=1.8 q=32.0 size=   11776KiB time=00:00:09.52 bitrate=10133.3kbits/s speed=0.0359x elapsed=0:04:25.27    \nframe=  476 fps=1.8 q=32.0 size=   11776KiB time=00:00:09.52 bitrate=10133.3kbits/s speed=0.0358x elapsed=0:04:25.88    \nframe=  476 fps=1.8 q=32.0 size=   11776KiB time=00:00:09.52 bitrate=10133.3kbits/s speed=0.0357x elapsed=0:04:26.55    \nframe=  476 fps=1.8 q=32.0 size=   11776KiB time=00:00:09.52 bitrate=10133.3kbits/s speed=0.0356x elapsed=0:04:27.27    \nframe=  476 fps=1.8 q=32.0 size=   11776KiB time=00:00:09.52 bitrate=10133.3kbits/s speed=0.0355x elapsed=0:04:27.95    \nframe=  476 fps=1.8 q=32.0 size=   11776KiB time=00:00:09.52 bitrate=10133.3kbits/s speed=0.0354x elapsed=0:04:28.64    \nframe=  476 fps=1.8 q=32.0 size=   11776KiB time=00:00:09.52 bitrate=10133.3kbits/s speed=0.0354x elapsed=0:04:29.27    \n[out#0/webm @ 00000133cce46cc0] video:15496KiB audio:0KiB subtitle:0KiB other streams:0KiB global headers:0KiB muxing overhead: 0.027433%\nframe=  500 fps=1.9 q=32.0 Lsize=   15500KiB time=00:00:10.00 bitrate=12697.8kbits/s speed=0.0371x elapsed=0:04:29.78    \n",
  "seconds": 270.9647264480591,
  "probe_out": {}
}